<svg focusable="false" xmlns="http://www.w3.org/2000/svg" viewBox="0 0 24 24" enable-background="new 0 0 24 24"><path stroke="#007DAA" stroke-width="2" stroke-miterlimit="10" d="M6.825 4.514l-.825 1.486h-3c-1.105 0-2 .895-2 2v10c0 1.105.895 2 2 2h18c1.105 0 2-.895 2-2v-10c0-1.105-.895-2-2-2h-3l-.825-1.486c-.177-.317-.511-.514-.875-.514h-8.6c-.364 0-.698.197-.875.514z" fill="none"/><circle stroke="#007DAA" stroke-width="2" stroke-miterlimit="10" cx="12" cy="13" r="4" fill="none"/><path fill="#007DAA" d="M6 10c0 .276-.112.526-.293.707-.181.181-.431.293-.707.293s-.526-.112-.707-.293-.293-.431-.293-.707.112-.526.293-.707c.181-.181.431-.293.707-.293s.526.112.707.293.293.431.293.707z"/></svg>